<svg width="1036" height="155" viewBox="0 0 1036 155" fill="none" xmlns="http://www.w3.org/2000/svg">
<path d="M219.193 32.3594H235.6L266.435 114.61L297.196 32.3594H313.603L272.88 139H259.843L219.193 32.3594ZM211.723 32.3594H227.323L230.033 103.551V139H211.723V32.3594ZM305.473 32.3594H321.146V139H302.763V103.551L305.473 32.3594ZM385.819 46.5684L353.959 139H334.696L374.833 32.3594H387.138L385.819 46.5684ZM412.479 139L380.546 46.5684L379.154 32.3594H391.532L431.815 139H412.479ZM410.941 99.4492V114.024H352.934V99.4492H410.941ZM524.467 84.5078V125.23C522.953 127.232 520.585 129.43 517.362 131.822C514.188 134.166 509.965 136.192 504.691 137.901C499.418 139.61 492.851 140.465 484.989 140.465C478.3 140.465 472.172 139.342 466.605 137.096C461.039 134.801 456.229 131.456 452.177 127.062C448.173 122.667 445.072 117.32 442.875 111.021C440.678 104.674 439.579 97.4473 439.579 89.3418V81.9443C439.579 73.8877 440.58 66.71 442.582 60.4111C444.633 54.0635 447.562 48.6924 451.371 44.2979C455.18 39.9033 459.77 36.583 465.141 34.3369C470.561 32.042 476.688 30.8945 483.524 30.8945C492.265 30.8945 499.491 32.3594 505.204 35.2891C510.966 38.1699 515.409 42.1738 518.534 47.3008C521.659 52.4277 523.637 58.2871 524.467 64.8789H506.449C505.863 61.168 504.716 57.8477 503.007 54.918C501.347 51.9883 498.954 49.6934 495.829 48.0332C492.753 46.3242 488.749 45.4697 483.817 45.4697C479.569 45.4697 475.834 46.2754 472.611 47.8867C469.389 49.498 466.703 51.8662 464.555 54.9912C462.455 58.1162 460.868 61.9248 459.794 66.417C458.72 70.9092 458.183 76.0361 458.183 81.7979V89.3418C458.183 95.2012 458.793 100.401 460.014 104.942C461.283 109.483 463.09 113.316 465.434 116.441C467.826 119.566 470.731 121.935 474.149 123.546C477.567 125.108 481.425 125.89 485.722 125.89C489.921 125.89 493.363 125.548 496.049 124.864C498.734 124.132 500.858 123.277 502.421 122.301C504.032 121.275 505.277 120.299 506.156 119.371V98.2041H483.964V84.5078H524.467ZM564.457 32.3594V139H546.073V32.3594H564.457ZM650.297 104.283H668.607C668.021 111.266 666.068 117.491 662.748 122.96C659.428 128.38 654.765 132.652 648.759 135.777C642.753 138.902 635.453 140.465 626.859 140.465C620.268 140.465 614.335 139.293 609.062 136.949C603.788 134.557 599.271 131.188 595.512 126.842C591.752 122.447 588.871 117.149 586.869 110.948C584.916 104.747 583.939 97.8135 583.939 90.1475V81.2852C583.939 73.6191 584.94 66.6855 586.942 60.4844C588.993 54.2832 591.923 48.9854 595.731 44.5908C599.54 40.1475 604.105 36.7539 609.428 34.4102C614.799 32.0664 620.829 30.8945 627.519 30.8945C636.015 30.8945 643.192 32.457 649.052 35.582C654.911 38.707 659.452 43.0283 662.675 48.5459C665.946 54.0635 667.948 60.3867 668.681 67.5156H650.37C649.882 62.9258 648.808 58.9951 647.147 55.7236C645.536 52.4521 643.144 49.9619 639.97 48.2529C636.796 46.4951 632.646 45.6162 627.519 45.6162C623.319 45.6162 619.657 46.3975 616.532 47.96C613.407 49.5225 610.795 51.8174 608.695 54.8447C606.596 57.8721 605.009 61.6074 603.935 66.0508C602.909 70.4453 602.396 75.4746 602.396 81.1387V90.1475C602.396 95.5186 602.86 100.401 603.788 104.796C604.765 109.142 606.229 112.877 608.183 116.002C610.185 119.127 612.724 121.544 615.8 123.253C618.876 124.962 622.562 125.816 626.859 125.816C632.084 125.816 636.308 124.986 639.53 123.326C642.802 121.666 645.268 119.249 646.928 116.075C648.637 112.853 649.76 108.922 650.297 104.283ZM734.379 32.3594V139H725.37V32.3594H734.379ZM784.037 81.4316V89.1953H731.376V81.4316H784.037ZM791.435 32.3594V40.123H731.376V32.3594H791.435ZM888.48 79.9668V91.3926C888.48 98.8633 887.504 105.626 885.551 111.681C883.646 117.687 880.863 122.838 877.201 127.135C873.588 131.432 869.242 134.728 864.164 137.022C859.086 139.317 853.373 140.465 847.025 140.465C840.824 140.465 835.16 139.317 830.033 137.022C824.955 134.728 820.585 131.432 816.923 127.135C813.261 122.838 810.429 117.687 808.427 111.681C806.425 105.626 805.424 98.8633 805.424 91.3926V79.9668C805.424 72.4961 806.4 65.7578 808.354 59.752C810.355 53.6973 813.188 48.5215 816.85 44.2246C820.512 39.9277 824.882 36.6318 829.96 34.3369C835.038 32.042 840.678 30.8945 846.879 30.8945C853.227 30.8945 858.939 32.042 864.018 34.3369C869.096 36.6318 873.466 39.9277 877.128 44.2246C880.79 48.5215 883.598 53.6973 885.551 59.752C887.504 65.7578 888.48 72.4961 888.48 79.9668ZM879.545 91.3926V79.8203C879.545 73.5215 878.812 67.8574 877.348 62.8281C875.932 57.7988 873.808 53.502 870.976 49.9375C868.192 46.373 864.774 43.6387 860.722 41.7344C856.669 39.8301 852.055 38.8779 846.879 38.8779C841.85 38.8779 837.333 39.8301 833.329 41.7344C829.325 43.6387 825.907 46.373 823.075 49.9375C820.292 53.502 818.144 57.7988 816.63 62.8281C815.165 67.8574 814.433 73.5215 814.433 79.8203V91.3926C814.433 97.7402 815.165 103.453 816.63 108.531C818.144 113.561 820.316 117.882 823.148 121.495C825.98 125.06 829.398 127.794 833.402 129.698C837.455 131.603 841.996 132.555 847.025 132.555C852.25 132.555 856.864 131.603 860.868 129.698C864.872 127.794 868.266 125.06 871.049 121.495C873.832 117.882 875.932 113.561 877.348 108.531C878.812 103.453 879.545 97.7402 879.545 91.3926ZM911.991 32.3594L942.021 77.4033L972.123 32.3594H982.816L947.514 84.874L983.915 139H973.148L942.021 92.4912L910.893 139H900.199L936.601 84.874L901.298 32.3594H911.991Z" fill="white"/>
<path fill-rule="evenodd" clip-rule="evenodd" d="M80.4834 54.8722C79.1829 54.8722 72.712 55.0175 70.7829 55.4301C62.7208 34.6226 39.839 23.5274 32.9398 1.396L26.2175 31.0002L33.5174 85.0303C26.3747 80.3039 15.2166 78.803 9.45292 80.2449C13.0282 83.9774 15.5309 88.5035 16.3992 93.3007C11.7042 92.1888 5.13899 93.5207 0 95.3476C13.1932 121.318 36.3305 119.966 55.1302 140.667C62.7955 149.107 69.8479 155 80.4834 155C91.1189 155 98.1673 149.107 105.837 140.667C124.636 119.966 147.774 121.318 160.967 95.3476C155.828 93.5207 149.263 92.1888 144.568 93.3007C145.432 88.5074 147.935 83.9813 151.514 80.2449C145.746 78.803 134.588 80.3039 127.449 85.0303L134.749 31.0002L128.027 1.396C121.128 23.5274 98.2459 34.6226 90.1799 55.4301C88.0701 54.9704 81.7799 54.8722 80.4834 54.8722Z" fill="url(#paint0_radial_2606_16810)"/>
<path fill-rule="evenodd" clip-rule="evenodd" d="M72.1523 143.45C77.8178 140.637 83.3379 140.692 88.7244 143.461C87.0939 153.559 73.4764 153.421 72.1523 143.45Z" fill="url(#paint1_linear_2606_16810)"/>
<path fill-rule="evenodd" clip-rule="evenodd" d="M127.986 1.21533C135.055 32.0571 108.523 62.0385 127.409 84.8497C139.903 67.7079 147.411 32.5954 127.986 1.21533Z" fill="url(#paint2_linear_2606_16810)"/>
<path fill-rule="evenodd" clip-rule="evenodd" d="M32.8986 1.21533C25.8306 32.0571 52.3624 62.0385 33.4762 84.8497C20.9823 67.7079 13.4742 32.5954 32.8986 1.21533Z" fill="url(#paint3_linear_2606_16810)"/>
<path fill-rule="evenodd" clip-rule="evenodd" d="M95.0069 129.172C100.197 108.813 124.462 118.042 122.599 92.3623C113.292 106.557 91.2587 99.6779 95.0069 129.172Z" fill="url(#paint4_linear_2606_16810)"/>
<path fill-rule="evenodd" clip-rule="evenodd" d="M65.8779 129.172C60.6878 108.813 36.423 118.042 38.2853 92.3623C47.5928 106.557 69.6261 99.6779 65.8779 129.172Z" fill="url(#paint5_linear_2606_16810)"/>
<path fill-rule="evenodd" clip-rule="evenodd" d="M80.4393 98.0753C81.5669 92.6966 83.716 89.2707 88.8825 87.4123C83.7278 86.2179 82.0855 82.5522 80.4393 76.875C78.7931 82.5522 77.1508 86.2179 71.9961 87.4123C77.1626 89.2707 79.3117 92.6966 80.4393 98.0753Z" fill="white"/>
<defs>
<radialGradient id="paint0_radial_2606_16810" cx="0" cy="0" r="1" gradientUnits="userSpaceOnUse" gradientTransform="translate(80.3603 151.156) rotate(-90.69) scale(152.021 83.6114)">
<stop stop-color="#FFCC00"/>
<stop offset="0.16" stop-color="#FFB900"/>
<stop offset="0.48" stop-color="#FF8900"/>
<stop offset="0.92" stop-color="#FF3C00"/>
<stop offset="1" stop-color="#FF2F00"/>
</radialGradient>
<linearGradient id="paint1_linear_2606_16810" x1="80.4462" y1="150.973" x2="80.4227" y2="128.064" gradientUnits="userSpaceOnUse">
<stop stop-color="#000082"/>
<stop offset="1" stop-color="#D905F5"/>
</linearGradient>
<linearGradient id="paint2_linear_2606_16810" x1="116.109" y1="55.5166" x2="139.974" y2="29.8059" gradientUnits="userSpaceOnUse">
<stop stop-color="#000082"/>
<stop offset="1" stop-color="#D905F5"/>
</linearGradient>
<linearGradient id="paint3_linear_2606_16810" x1="44.7757" y1="55.5166" x2="20.9116" y2="29.8059" gradientUnits="userSpaceOnUse">
<stop stop-color="#000082"/>
<stop offset="1" stop-color="#D905F5"/>
</linearGradient>
<linearGradient id="paint4_linear_2606_16810" x1="99.5447" y1="116.097" x2="129.314" y2="98.9471" gradientUnits="userSpaceOnUse">
<stop stop-color="#000082"/>
<stop offset="1" stop-color="#D905F5"/>
</linearGradient>
<linearGradient id="paint5_linear_2606_16810" x1="61.3361" y1="116.097" x2="31.5669" y2="98.9471" gradientUnits="userSpaceOnUse">
<stop stop-color="#000082"/>
<stop offset="1" stop-color="#D905F5"/>
</linearGradient>
</defs>
</svg>
