<svg width="500" height="500" viewBox="0 0 500 500" fill="none" xmlns="http://www.w3.org/2000/svg">
<rect width="500" height="500" fill="black"/>
<path fill-rule="evenodd" clip-rule="evenodd" d="M249.869 207.133C247.492 207.133 235.662 207.399 232.136 208.153C217.398 170.115 175.568 149.832 162.955 109.374L150.666 163.493L164.011 262.265C150.954 253.625 130.556 250.881 120.019 253.517C126.555 260.34 131.13 268.614 132.718 277.384C124.135 275.351 112.133 277.786 102.738 281.126C126.857 328.602 169.154 326.131 203.521 363.975C217.534 379.402 230.426 390.176 249.869 390.176C269.312 390.176 282.197 379.402 296.217 363.975C330.585 326.131 372.882 328.602 397 281.126C387.606 277.786 375.604 275.351 367.021 277.384C368.601 268.622 373.176 260.347 379.719 253.517C369.176 250.881 348.778 253.625 335.727 262.265L349.072 163.493L336.783 109.374C324.171 149.832 282.341 170.115 267.595 208.153C263.738 207.313 252.239 207.133 249.869 207.133Z" fill="url(#paint0_radial_4531_12114)"/>
<path fill-rule="evenodd" clip-rule="evenodd" d="M234.641 369.061C244.998 363.918 255.089 364.019 264.936 369.082C261.955 387.541 237.061 387.29 234.641 369.061Z" fill="url(#paint1_linear_4531_12114)"/>
<path fill-rule="evenodd" clip-rule="evenodd" d="M336.707 109.044C349.628 165.426 301.126 220.234 335.652 261.935C358.492 230.598 372.217 166.41 336.707 109.044Z" fill="url(#paint2_linear_4531_12114)"/>
<path fill-rule="evenodd" clip-rule="evenodd" d="M162.878 109.044C149.957 165.426 198.46 220.234 163.934 261.935C141.094 230.598 127.369 166.41 162.878 109.044Z" fill="url(#paint3_linear_4531_12114)"/>
<path fill-rule="evenodd" clip-rule="evenodd" d="M276.417 342.961C285.905 305.742 330.264 322.613 326.859 275.669C309.844 301.619 269.565 289.043 276.417 342.961Z" fill="url(#paint4_linear_4531_12114)"/>
<path fill-rule="evenodd" clip-rule="evenodd" d="M223.171 342.961C213.683 305.742 169.324 322.613 172.729 275.669C189.744 301.619 230.023 289.043 223.171 342.961Z" fill="url(#paint5_linear_4531_12114)"/>
<path fill-rule="evenodd" clip-rule="evenodd" d="M249.786 286.113C251.848 276.28 255.777 270.017 265.221 266.62C255.798 264.436 252.796 257.735 249.786 247.356C246.777 257.735 243.775 264.436 234.352 266.62C243.796 270.017 247.725 276.28 249.786 286.113Z" fill="white"/>
<defs>
<radialGradient id="paint0_radial_4531_12114" cx="0" cy="0" r="1" gradientUnits="userSpaceOnUse" gradientTransform="translate(249.644 383.15) rotate(-90.69) scale(277.908 152.849)">
<stop stop-color="#FFCC00"/>
<stop offset="0.16" stop-color="#FFB900"/>
<stop offset="0.48" stop-color="#FF8900"/>
<stop offset="0.92" stop-color="#FF3C00"/>
<stop offset="1" stop-color="#FF2F00"/>
</radialGradient>
<linearGradient id="paint1_linear_4531_12114" x1="249.803" y1="382.815" x2="249.76" y2="340.935" gradientUnits="userSpaceOnUse">
<stop stop-color="#000082"/>
<stop offset="1" stop-color="#D905F5"/>
</linearGradient>
<linearGradient id="paint2_linear_4531_12114" x1="314.995" y1="208.312" x2="358.621" y2="161.31" gradientUnits="userSpaceOnUse">
<stop stop-color="#000082"/>
<stop offset="1" stop-color="#D905F5"/>
</linearGradient>
<linearGradient id="paint3_linear_4531_12114" x1="184.591" y1="208.312" x2="140.965" y2="161.31" gradientUnits="userSpaceOnUse">
<stop stop-color="#000082"/>
<stop offset="1" stop-color="#D905F5"/>
</linearGradient>
<linearGradient id="paint4_linear_4531_12114" x1="284.713" y1="319.058" x2="339.134" y2="287.707" gradientUnits="userSpaceOnUse">
<stop stop-color="#000082"/>
<stop offset="1" stop-color="#D905F5"/>
</linearGradient>
<linearGradient id="paint5_linear_4531_12114" x1="214.868" y1="319.058" x2="160.447" y2="287.707" gradientUnits="userSpaceOnUse">
<stop stop-color="#000082"/>
<stop offset="1" stop-color="#D905F5"/>
</linearGradient>
</defs>
</svg>
