<svg width="162" height="154" viewBox="0 0 162 154" fill="none" xmlns="http://www.w3.org/2000/svg">
<path fill-rule="evenodd" clip-rule="evenodd" d="M80.6006 53.6568C79.3001 53.6568 72.8292 53.8022 70.9001 54.2147C62.838 33.4073 39.9562 22.3121 33.057 0.180664L26.3347 29.7849L33.6346 83.815C26.4918 79.0885 15.3338 77.5877 9.5701 79.0296C13.1454 82.7621 15.6481 87.2881 16.5164 92.0853C11.8214 90.9734 5.25618 92.3053 0.117188 94.1323C13.3104 120.102 36.4477 118.751 55.2474 139.452C62.9127 147.891 69.965 153.785 80.6006 153.785C91.2361 153.785 98.2845 147.891 105.954 139.452C124.753 118.751 147.891 120.102 161.084 94.1323C155.945 92.3053 149.38 90.9734 144.685 92.0853C145.549 87.2921 148.052 82.766 151.631 79.0296C145.863 77.5877 134.705 79.0885 127.567 83.815L134.866 29.7849L128.144 0.180664C121.245 22.3121 98.3631 33.4073 90.2971 54.2147C88.1872 53.755 81.8971 53.6568 80.6006 53.6568Z" fill="url(#paint0_radial_2606_16812)"/>
<path fill-rule="evenodd" clip-rule="evenodd" d="M72.2695 142.234C77.935 139.421 83.4551 139.476 88.8416 142.246C87.2111 152.343 73.5936 152.206 72.2695 142.234Z" fill="url(#paint1_linear_2606_16812)"/>
<path fill-rule="evenodd" clip-rule="evenodd" d="M128.104 0C135.172 30.8418 108.64 60.8232 127.526 83.6343C140.02 66.4926 147.528 31.3801 128.104 0Z" fill="url(#paint2_linear_2606_16812)"/>
<path fill-rule="evenodd" clip-rule="evenodd" d="M33.0158 0C25.9477 30.8418 52.4796 60.8232 33.5934 83.6343C21.0995 66.4926 13.5914 31.3801 33.0158 0Z" fill="url(#paint3_linear_2606_16812)"/>
<path fill-rule="evenodd" clip-rule="evenodd" d="M95.1241 127.957C100.314 107.597 124.579 116.826 122.717 91.147C113.409 105.342 91.3759 98.4626 95.1241 127.957Z" fill="url(#paint4_linear_2606_16812)"/>
<path fill-rule="evenodd" clip-rule="evenodd" d="M65.9951 127.957C60.805 107.597 36.5402 116.826 38.4025 91.147C47.71 105.342 69.7433 98.4626 65.9951 127.957Z" fill="url(#paint5_linear_2606_16812)"/>
<path fill-rule="evenodd" clip-rule="evenodd" d="M80.5565 96.86C81.6841 91.4813 83.8332 88.0553 88.9997 86.197C83.845 85.0026 82.2027 81.3369 80.5565 75.6597C78.9103 81.3369 77.268 85.0026 72.1133 86.197C77.2798 88.0553 79.4289 91.4813 80.5565 96.86Z" fill="white"/>
<defs>
<radialGradient id="paint0_radial_2606_16812" cx="0" cy="0" r="1" gradientUnits="userSpaceOnUse" gradientTransform="translate(80.4775 149.941) rotate(-90.69) scale(152.021 83.6114)">
<stop stop-color="#FFCC00"/>
<stop offset="0.16" stop-color="#FFB900"/>
<stop offset="0.48" stop-color="#FF8900"/>
<stop offset="0.92" stop-color="#FF3C00"/>
<stop offset="1" stop-color="#FF2F00"/>
</radialGradient>
<linearGradient id="paint1_linear_2606_16812" x1="80.5634" y1="149.758" x2="80.5398" y2="126.849" gradientUnits="userSpaceOnUse">
<stop stop-color="#000082"/>
<stop offset="1" stop-color="#D905F5"/>
</linearGradient>
<linearGradient id="paint2_linear_2606_16812" x1="116.227" y1="54.3012" x2="140.091" y2="28.5906" gradientUnits="userSpaceOnUse">
<stop stop-color="#000082"/>
<stop offset="1" stop-color="#D905F5"/>
</linearGradient>
<linearGradient id="paint3_linear_2606_16812" x1="44.8929" y1="54.3012" x2="21.0288" y2="28.5906" gradientUnits="userSpaceOnUse">
<stop stop-color="#000082"/>
<stop offset="1" stop-color="#D905F5"/>
</linearGradient>
<linearGradient id="paint4_linear_2606_16812" x1="99.6619" y1="114.881" x2="129.431" y2="97.7318" gradientUnits="userSpaceOnUse">
<stop stop-color="#000082"/>
<stop offset="1" stop-color="#D905F5"/>
</linearGradient>
<linearGradient id="paint5_linear_2606_16812" x1="61.4533" y1="114.881" x2="31.6841" y2="97.7318" gradientUnits="userSpaceOnUse">
<stop stop-color="#000082"/>
<stop offset="1" stop-color="#D905F5"/>
</linearGradient>
</defs>
</svg>
