<svg width="256" height="256" viewBox="0 0 256 256" fill="none" xmlns="http://www.w3.org/2000/svg">
<g filter="url(#filter0_b_4437_12253)">
<circle cx="128" cy="128" r="128" fill="black"/>
</g>
<path d="M47.5762 103.262C47.5637 97.7002 50.0889 92.4167 53.1153 87.5797C55.3264 84.0444 59.2409 79.3299 61.9242 76.1347C72.7403 63.2554 78.5457 60.5088 92.3174 50.6562C98.9339 45.9229 106.174 42.1612 113.748 39.1822C125.017 34.7458 142 34.1645 149.218 36.6661C156.436 39.1677 167.984 47.0004 180.208 60.376C187.819 68.7049 193.288 76.1389 203.205 93.1329C211.032 105.896 209.843 122.025 198.587 128.199C184.133 138.255 165.13 136.548 148.328 137.52C142.15 136.119 148.682 154.79 149.486 162.538C149.795 165.494 150.928 168.305 152.761 170.649C154.09 172.351 155.392 174.066 155.793 176.279C156.371 181.448 160.126 185.133 160.823 190.223C161.228 194.026 161.952 197.703 162.378 201.377C163.431 210.445 156.515 218.608 147.371 218.832C145.871 218.87 144.389 218.739 142.982 218.44C140.509 217.78 139.29 218.81 134.488 219.951C130.885 220.809 127.193 221.234 123.489 221.288C104.498 221.56 98.7695 217.655 94.8135 216.003C85.3681 211.679 85.5595 200.404 89.8214 192.308C90.6951 190.547 91.8598 188.921 93.1431 187.362C98.3721 181.014 102.453 173.798 104.976 165.976C108.641 154.614 108.344 146.98 107.108 139.228C105.55 138.232 102.863 139.087 100.931 138.243C79.9911 134.979 49.9911 128.768 47.5804 103.266L47.5762 103.262Z" fill="white"/>
<path d="M52.6475 96.8141C61.6103 72.749 94.0273 53.1828 102.786 48.3375C111.685 43.4173 117.613 39.9338 133.261 39.3027C141.955 38.9519 150.569 41.3185 157.803 46.1431C181.209 61.7587 202.694 97.0631 203.629 104.408C207.085 135.201 165.59 130.898 145.187 132.295C141.437 131.201 146.065 125.61 146.473 123.168C148.062 108.46 127.06 110.25 117.407 111.661C91.6788 120.684 113.638 132.949 106.859 133.15C87.3255 133.731 43.2292 122.106 52.6475 96.816V96.8141ZM97.8128 110.775C92.6212 104.092 83.0884 104.456 75.4985 103.574C74.5334 103.461 74.0925 102.301 74.7518 101.591C77.4414 98.6908 85.9109 99.3548 90.9718 100.164C92.5007 100.41 93.99 100.873 95.3774 101.56C98.5325 103.121 101.894 104.263 104.669 106.559C105.736 107.399 112.011 114.294 110.058 109.353C107.113 104.688 102.88 101.821 97.6092 100.372C96.6794 100.243 95.1318 99.9715 94.6513 99.0394C94.464 98.6782 94.5952 98.2339 94.9342 98.0078C97.1016 96.5753 100.927 96.9052 103.304 97.7584C107.699 98.1279 109.958 100.949 112.452 104.256C114.717 105.861 114.509 110.611 118.205 108.33V108.325C115.878 106.355 114.78 103.019 113.825 100.007C113.538 99.3922 112.392 98.5161 113.292 97.9391C117.84 96.1455 123.302 97.5738 122.334 103.505C124.35 110.156 125.013 102.836 124.019 100.175C123.514 97.827 124.749 97.4285 126.825 97.7191C128.626 97.827 130.43 97.8331 132.233 97.7999C138.301 98.1653 126.613 106.067 132.368 106.036H132.37C136.859 94.7028 149.897 101.801 140.857 103.619C136.231 104.755 135.962 111.5 140.998 106.089C143.746 104.875 146.791 101.846 149.639 102.002C151.165 102.276 156.299 103.715 153.493 105.583C150.885 107.129 145.512 108.421 144.697 111.157C144.697 111.157 144.697 111.161 144.698 111.159C148.904 109.778 153.141 107.256 157.84 106.793C162.647 106.197 171.637 104.796 176.038 107.676C177.126 108.388 175.859 109.293 175.254 109.251C171.003 108.96 158.424 108.097 153.965 113.381C153.965 113.381 153.965 113.384 153.967 113.384C164.361 109.851 173.734 111.182 184.512 112.4C186.205 113.104 189.521 112.434 189.873 114.688C190.578 117.534 188.672 120.395 185.569 119.405C176.067 115.01 162.333 111.215 153.162 117.618V117.622C159.358 117.852 163.155 117.8 165.624 117.862C165.948 117.871 175.177 118.265 175.497 118.319C180.602 119.177 189.637 124.672 178.553 124.321C171.495 124.576 160.696 118.12 152.457 121.383V121.387C154.955 123.04 166.611 122.631 165.52 125.612C164.814 127.941 153.416 125.456 148.846 128.782V128.786C150.849 129.608 152.89 129.565 155.321 129.563C162.094 129.606 205.264 124.036 193.523 112.496C182.613 104.956 168.519 105.212 156.278 101.117C149.522 98.7614 141.038 99.6912 135.328 94.9122C132.098 92.4088 128.036 97.221 124.425 95.7573C98.801 92.2467 20.3677 102.101 84.9667 126.15C87.0574 126.198 107.385 133.268 102.156 127.742C94.6097 124.944 96.147 125.928 100.428 122.805V122.801C96.3549 122.058 92.6212 124.46 88.7026 123.848C87.8457 123.713 87.6062 122.594 88.3426 122.139C91.8016 120.003 97.8586 120.279 99.4623 118.763V118.759C94.5994 116.461 88.5695 117.424 84.353 120.68C83.3214 121.477 81.9527 121.68 80.7403 121.203C79.3612 120.659 77.9654 120.208 76.6322 119.606C75.4383 119.066 75.405 117.379 76.5926 116.824C81.5389 114.514 87.6001 113.623 92.8355 114.412C103.897 117.474 90.7285 109.695 85.1604 111.026C84.4343 111.198 83.7062 111.359 82.9679 111.456C77.928 112.131 73.1253 114.392 68.0625 114.481C65.4354 114.097 63.7839 109.511 65.9367 107.676C67.9772 104.356 72.2724 106.451 75.3758 106.416C83.3588 105.143 90.77 106.557 97.8006 110.777H97.8045L97.8128 110.775ZM122.357 84.792C128.131 84.7318 139.288 73.9073 138.19 67.7833C137.281 57.8808 124.396 61.2626 121.163 67.9452C119.992 70.0668 119.811 72.8757 117.6 74.2562C109.969 78.1634 116.411 85.1345 122.357 84.794V84.792ZM85.3496 83.6937C92.4069 83.5026 98.9322 81.1629 102.988 75.1593C104.673 71.6052 100.355 68.6448 97.6611 67.1231C92.7627 65.2277 88.145 69.0641 83.7356 70.7042C78.1984 73.8367 76.2765 84.0072 85.3496 83.6956V83.6937ZM176.7 84.5365C175.895 79.8719 173.496 72.6494 167.98 72.7469C164.257 72.1574 157.206 70.2869 157.006 76.0643C158.294 80.2934 161.873 85.8256 166.239 87.1958C169.702 87.0299 176.269 90.0878 176.698 84.5365H176.7ZM153.632 55.2027C154.171 49.473 147.798 46.6559 142.937 47.9513C134.404 52.3628 152.532 69.1493 153.632 55.2027ZM118.603 54.9163C125.452 55.2194 129.525 46.5396 121.525 44.8165C113.694 42.9503 107.005 53.3385 118.603 54.9163Z" fill="url(#paint0_linear_4437_12253)"/>
<path d="M159.105 200.805C158.474 197.815 158.131 194.544 156.937 192.061C156.937 192.061 156.937 192.059 156.933 192.055V192.05C156.908 191.999 156.883 191.947 156.858 191.899C155.627 189.321 152.896 179.879 152.896 179.879C151.929 172.395 144.353 167.969 144.977 159.995C144.424 151.375 140.518 143.234 141.797 134.512C141.329 123.057 148.307 123.167 139.827 116.362C130.008 111.431 113.278 110.036 107.639 121.07C106.422 125.727 110.545 128.963 111.1 133.343C112.527 146.123 111.816 159.443 106.979 171.423C106.247 173.09 105.576 174.579 105.031 175.735C101.95 182.25 95.1234 190.309 95.1234 190.309C90.8844 196.381 88.4672 207.004 96.5421 210.888C96.7709 210.998 97.0123 211.085 97.2514 211.173C99.0797 211.843 100.675 213.02 102.36 213.985C103.142 214.521 104.704 215.108 106.719 215.673C116.094 218.308 126.06 217.95 135.264 214.772C139.087 213.452 142.377 212.823 145.16 213.599C146.648 213.852 147.9 213.937 148.996 213.907C155.388 213.72 160.093 207.942 159.202 201.621C159.163 201.347 159.132 201.073 159.107 200.801L159.105 200.805Z" fill="url(#paint1_linear_4437_12253)"/>
<path fill-rule="evenodd" clip-rule="evenodd" d="M39.6374 160.744C39.0425 161.029 39.0404 161.874 39.6374 162.158L51.5954 167.886C51.7576 167.963 51.8866 168.094 51.9635 168.253L57.6649 180.147C57.9498 180.741 58.7964 180.741 59.0814 180.147L64.7827 168.253C64.8596 168.092 64.9907 167.963 65.1509 167.886L77.1088 162.158C77.7038 161.874 77.7015 161.029 77.1088 160.744L65.155 155.052C64.9928 154.975 64.8617 154.845 64.7848 154.683L59.0834 142.756C58.7985 142.162 57.9498 142.162 57.6669 142.756L51.9656 154.683C51.8887 154.845 51.7576 154.975 51.5954 155.052L39.6415 160.744H39.6374Z" fill="white"/>
<path fill-rule="evenodd" clip-rule="evenodd" d="M173.863 160.743C173.273 161.029 173.273 161.87 173.863 162.154L187.56 168.733C187.723 168.81 187.854 168.941 187.931 169.105L194.456 182.873C194.739 183.471 195.591 183.471 195.874 182.873L202.399 169.105C202.476 168.943 202.607 168.812 202.77 168.733L216.466 162.154C217.059 161.87 217.059 161.029 216.466 160.743L202.767 154.122C202.607 154.045 202.476 153.915 202.401 153.753L195.874 140.024C195.591 139.426 194.739 139.426 194.456 140.024L187.929 153.753C187.851 153.915 187.723 154.045 187.56 154.122L173.862 160.743H173.863Z" fill="white"/>
<path fill-rule="evenodd" clip-rule="evenodd" d="M59.6539 193.258C59.059 193.543 59.0611 194.387 59.6539 194.672L66.8195 198.087C66.9818 198.164 67.1108 198.295 67.1898 198.454L70.628 205.612C70.913 206.206 71.7616 206.206 72.0445 205.612L75.462 198.456C75.5389 198.295 75.67 198.164 75.8323 198.087L82.9959 194.672C83.5908 194.39 83.5908 193.545 82.9959 193.258L75.8281 189.82C75.6658 189.743 75.5369 189.613 75.4599 189.453L72.0424 182.315C71.7575 181.722 70.913 181.722 70.626 182.315L67.1856 189.455C67.1087 189.615 66.9797 189.743 66.8175 189.822L59.6497 193.26L59.6539 193.258Z" fill="white"/>
<path fill-rule="evenodd" clip-rule="evenodd" d="M168.041 195.997C167.436 196.279 167.438 197.137 168.041 197.417L174.872 200.579C175.035 200.653 175.166 200.782 175.244 200.942L178.562 207.627C178.851 208.208 179.683 208.208 179.97 207.627L183.265 200.944C183.344 200.782 183.477 200.653 183.64 200.579L190.487 197.417C191.094 197.137 191.094 196.277 190.487 195.995L183.635 192.815C183.473 192.74 183.342 192.611 183.263 192.451L179.966 185.787C179.679 185.206 178.847 185.204 178.558 185.787L175.241 192.455C175.161 192.615 175.03 192.742 174.87 192.816L168.037 195.999L168.041 195.997Z" fill="white"/>
<defs>
<filter id="filter0_b_4437_12253" x="-3" y="-3" width="262" height="262" filterUnits="userSpaceOnUse" color-interpolation-filters="sRGB">
<feFlood flood-opacity="0" result="BackgroundImageFix"/>
<feGaussianBlur in="BackgroundImageFix" stdDeviation="1.5"/>
<feComposite in2="SourceAlpha" operator="in" result="effect1_backgroundBlur_4437_12253"/>
<feBlend mode="normal" in="SourceGraphic" in2="effect1_backgroundBlur_4437_12253" result="shape"/>
</filter>
<linearGradient id="paint0_linear_4437_12253" x1="128.05" y1="35.1918" x2="128.05" y2="221.302" gradientUnits="userSpaceOnUse">
<stop stop-color="#C2C0E1"/>
<stop offset="0.401042" stop-color="#7000FF"/>
<stop offset="1" stop-color="#35264A"/>
</linearGradient>
<linearGradient id="paint1_linear_4437_12253" x1="128.05" y1="35.192" x2="128.05" y2="221.302" gradientUnits="userSpaceOnUse">
<stop stop-color="#C2C0E1"/>
<stop offset="0.401042" stop-color="#7000FF"/>
<stop offset="1" stop-color="#35264A"/>
</linearGradient>
</defs>
</svg>
